<?xml version="1.0" standalone="no"?>
<!DOCTYPE svg PUBLIC "-//W3C//DTD SVG 20010904//EN"
 "http://www.w3.org/TR/2001/REC-SVG-20010904/DTD/svg10.dtd">
<svg version="1.0" xmlns="http://www.w3.org/2000/svg"
 width="501.000000pt" height="501.000000pt" viewBox="0 0 501.000000 501.000000"
 preserveAspectRatio="xMidYMid meet">
<metadata>
Created by potrace 1.11, written by Peter Selinger 2001-2013
</metadata>
<g transform="translate(0.000000,501.000000) scale(0.100000,-0.100000)"
fill="#000000" stroke="none">
<path d="M2315 5004 c-491 -51 -880 -190 -1245 -445 -574 -403 -935 -992
-1047 -1709 -24 -159 -24 -518 1 -680 86 -563 317 -1029 701 -1416 213 -214
393 -345 660 -479 228 -115 447 -186 730 -238 119 -21 133 -21 1478 -25 l1358
-3 -27 53 c-15 29 -32 56 -38 60 -6 4 -7 8 -3 8 4 0 3 6 -3 13 -6 6 -38 68
-71 137 -34 69 -65 128 -71 131 -5 3 -9 9 -9 13 2 10 -121 251 -131 257 -5 3
-9 9 -9 13 2 11 -121 251 -130 254 -4 2 11 27 34 55 23 29 70 95 104 148 544
842 536 1915 -22 2749 -397 593 -1003 974 -1725 1085 -100 15 -450 28 -535 19z
m26 -1462 l390 -877 -123 -117 c-68 -65 -161 -153 -208 -197 l-85 -79 -263
190 c-228 165 -265 188 -275 174 -53 -71 -453 -573 -454 -572 -2 2 -27 166
-57 366 l-55 363 346 796 c190 438 352 812 360 831 13 29 16 32 25 17 5 -10
185 -413 399 -895z m1623 -1621 c240 -464 435 -847 434 -851 -2 -4 -77 26
-167 66 -90 41 -166 74 -170 73 -3 0 -48 -51 -100 -113 l-94 -113 -166 80
c-91 44 -210 101 -265 127 l-99 47 -321 -128 c-176 -71 -321 -129 -322 -129
-2 0 29 68 67 151 38 83 69 156 69 162 0 13 236 531 260 572 15 25 336 724
401 874 11 25 23 40 28 35 5 -5 205 -389 445 -853z"/>
</g>
</svg>
